<svg xmlns="http://www.w3.org/2000/svg" xmlns:xlink="http://www.w3.org/1999/xlink" width="500" zoomAndPan="magnify" viewBox="0 0 375 119.999999" height="160" preserveAspectRatio="xMidYMid meet" version="1.0"><defs><g/></defs><g fill="#ffffff" fill-opacity="1"><g transform="translate(27.466892, 100.188643)"><g><path d="M 92.6875 -66.203125 C 100.9375 -66.203125 107.472656 -63.8125 112.296875 -59.03125 C 117.117188 -54.25 119.53125 -47.078125 119.53125 -37.515625 L 119.53125 0 L 104.203125 0 L 104.203125 -35.546875 C 104.203125 -41.273438 102.9375 -45.585938 100.40625 -48.484375 C 97.875 -51.390625 94.238281 -52.84375 89.5 -52.84375 C 84.34375 -52.84375 80.210938 -51.144531 77.109375 -47.75 C 74.003906 -44.351562 72.453125 -39.507812 72.453125 -33.21875 L 72.453125 0 L 57.125 0 L 57.125 -35.546875 C 57.125 -41.273438 55.859375 -45.585938 53.328125 -48.484375 C 50.796875 -51.390625 47.160156 -52.84375 42.421875 -52.84375 C 37.191406 -52.84375 33.039062 -51.164062 29.96875 -47.8125 C 26.90625 -44.457031 25.375 -39.59375 25.375 -33.21875 L 25.375 0 L 10.046875 0 L 10.046875 -65.46875 L 24.640625 -65.46875 L 24.640625 -57.125 C 27.085938 -60.070312 30.148438 -62.320312 33.828125 -63.875 C 37.515625 -65.425781 41.601562 -66.203125 46.09375 -66.203125 C 51 -66.203125 55.351562 -65.28125 59.15625 -63.4375 C 62.957031 -61.601562 65.957031 -58.890625 68.15625 -55.296875 C 70.851562 -58.722656 74.328125 -61.394531 78.578125 -63.3125 C 82.828125 -65.238281 87.53125 -66.203125 92.6875 -66.203125 Z M 92.6875 -66.203125 "/></g></g></g><g fill="#ffffff" fill-opacity="1"><g transform="translate(145.997214, 100.188643)"><g><path d="M 71.59375 -32.359375 C 71.59375 -31.296875 71.507812 -29.785156 71.34375 -27.828125 L 19.984375 -27.828125 C 20.878906 -23.003906 23.226562 -19.179688 27.03125 -16.359375 C 30.832031 -13.546875 35.550781 -12.140625 41.1875 -12.140625 C 48.382812 -12.140625 54.3125 -14.507812 58.96875 -19.25 L 67.1875 -9.8125 C 64.238281 -6.289062 60.515625 -3.628906 56.015625 -1.828125 C 51.523438 -0.0351562 46.460938 0.859375 40.828125 0.859375 C 33.628906 0.859375 27.289062 -0.566406 21.8125 -3.421875 C 16.34375 -6.285156 12.113281 -10.269531 9.125 -15.375 C 6.144531 -20.488281 4.65625 -26.273438 4.65625 -32.734375 C 4.65625 -39.109375 6.101562 -44.847656 9 -49.953125 C 11.90625 -55.066406 15.929688 -59.050781 21.078125 -61.90625 C 26.234375 -64.769531 32.039062 -66.203125 38.5 -66.203125 C 44.875 -66.203125 50.570312 -64.789062 55.59375 -61.96875 C 60.625 -59.144531 64.546875 -55.179688 67.359375 -50.078125 C 70.179688 -44.972656 71.59375 -39.066406 71.59375 -32.359375 Z M 38.5 -53.9375 C 33.59375 -53.9375 29.441406 -52.484375 26.046875 -49.578125 C 22.660156 -46.679688 20.597656 -42.820312 19.859375 -38 L 57 -38 C 56.351562 -42.738281 54.351562 -46.578125 51 -49.515625 C 47.644531 -52.460938 43.476562 -53.9375 38.5 -53.9375 Z M 38.5 -53.9375 "/></g></g></g><g fill="#ffffff" fill-opacity="1"><g transform="translate(211.696771, 100.188643)"><g><path d="M 71.59375 -32.359375 C 71.59375 -31.296875 71.507812 -29.785156 71.34375 -27.828125 L 19.984375 -27.828125 C 20.878906 -23.003906 23.226562 -19.179688 27.03125 -16.359375 C 30.832031 -13.546875 35.550781 -12.140625 41.1875 -12.140625 C 48.382812 -12.140625 54.3125 -14.507812 58.96875 -19.25 L 67.1875 -9.8125 C 64.238281 -6.289062 60.515625 -3.628906 56.015625 -1.828125 C 51.523438 -0.0351562 46.460938 0.859375 40.828125 0.859375 C 33.628906 0.859375 27.289062 -0.566406 21.8125 -3.421875 C 16.34375 -6.285156 12.113281 -10.269531 9.125 -15.375 C 6.144531 -20.488281 4.65625 -26.273438 4.65625 -32.734375 C 4.65625 -39.109375 6.101562 -44.847656 9 -49.953125 C 11.90625 -55.066406 15.929688 -59.050781 21.078125 -61.90625 C 26.234375 -64.769531 32.039062 -66.203125 38.5 -66.203125 C 44.875 -66.203125 50.570312 -64.789062 55.59375 -61.96875 C 60.625 -59.144531 64.546875 -55.179688 67.359375 -50.078125 C 70.179688 -44.972656 71.59375 -39.066406 71.59375 -32.359375 Z M 38.5 -53.9375 C 33.59375 -53.9375 29.441406 -52.484375 26.046875 -49.578125 C 22.660156 -46.679688 20.597656 -42.820312 19.859375 -38 L 57 -38 C 56.351562 -42.738281 54.351562 -46.578125 51 -49.515625 C 47.644531 -52.460938 43.476562 -53.9375 38.5 -53.9375 Z M 38.5 -53.9375 "/></g></g></g><g fill="#ffffff" fill-opacity="1"><g transform="translate(277.396328, 100.188643)"><g><path d="M 36.65625 -79.4375 C 30.195312 -79.4375 26.96875 -75.921875 26.96875 -68.890625 L 26.96875 -64.96875 L 44.984375 -64.96875 L 44.984375 -52.71875 L 27.46875 -52.71875 L 27.46875 0 L 12.140625 0 L 12.140625 -52.71875 L 1.34375 -52.71875 L 1.34375 -64.96875 L 12.140625 -64.96875 L 12.140625 -69.140625 C 12.140625 -76.171875 14.179688 -81.707031 18.265625 -85.75 C 22.347656 -89.800781 28.109375 -91.828125 35.546875 -91.828125 C 41.429688 -91.828125 46.050781 -90.640625 49.40625 -88.265625 L 45.109375 -76.75 C 42.492188 -78.539062 39.675781 -79.4375 36.65625 -79.4375 Z M 36.65625 -79.4375 "/></g></g></g><g fill="#ffffff" fill-opacity="1"><g transform="translate(312.083863, 100.188643)"><g><path d="M 10.046875 -65.46875 L 25.375 -65.46875 L 25.375 0 L 10.046875 0 Z M 17.765625 -76.25 C 14.984375 -76.25 12.65625 -77.128906 10.78125 -78.890625 C 8.90625 -80.648438 7.96875 -82.835938 7.96875 -85.453125 C 7.96875 -88.066406 8.90625 -90.25 10.78125 -92 C 12.65625 -93.757812 14.984375 -94.640625 17.765625 -94.640625 C 20.546875 -94.640625 22.875 -93.800781 24.75 -92.125 C 26.632812 -90.445312 27.578125 -88.34375 27.578125 -85.8125 C 27.578125 -83.113281 26.65625 -80.84375 24.8125 -79 C 22.976562 -77.164062 20.628906 -76.25 17.765625 -76.25 Z M 17.765625 -76.25 "/></g></g></g></svg>